<svg width="1429" height="220" viewBox="0 0 1429 220" fill="none" xmlns="http://www.w3.org/2000/svg">
<mask id="path-1-inside-1_85_956" fill="white">
<path d="M32.1172 84.7708C32.1172 86.2988 32.7284 87.0628 33.9508 87.0628H56.871C58.0934 87.0628 58.7046 86.2988 58.7046 84.7708V3.17488C58.7046 1.64687 59.4177 0.882864 60.8439 0.882864H88.1953C89.4177 0.882864 90.0289 1.64687 90.0289 3.17488V217.861C90.0289 219.287 89.4177 220 88.1953 220H60.8439C59.4177 220 58.7046 219.287 58.7046 217.861V118.54C58.7046 117.317 58.0934 116.706 56.871 116.706H33.9508C32.7284 116.706 32.1172 117.317 32.1172 118.54V217.861C32.1172 219.287 31.506 220 30.2836 220H3.08495C1.55694 220 0.79293 219.287 0.79293 217.861V3.17488C0.79293 1.64687 1.55694 0.882864 3.08495 0.882864H30.2836C31.506 0.882864 32.1172 1.64687 32.1172 3.17488V84.7708ZM159.401 148.031C160.521 148.031 161.082 147.521 161.082 146.503L150.691 51.6129C150.487 50.798 150.182 50.3905 149.774 50.3905C149.367 50.3905 149.061 50.798 148.857 51.6129L138.467 146.503C138.467 147.521 138.976 148.031 139.995 148.031H159.401ZM130.674 217.861C130.674 219.287 129.961 220 128.535 220H102.864C101.54 220 100.878 219.287 100.878 217.861L126.854 3.17488C126.854 1.64687 127.516 0.882864 128.84 0.882864H171.625C172.949 0.882864 173.611 1.64687 173.611 3.17488L199.587 217.861C199.587 219.287 198.925 220 197.601 220H171.014C169.587 220 168.874 219.287 168.874 217.861L164.443 179.049C164.443 178.234 163.832 177.827 162.61 177.827H136.939C136.531 177.827 136.124 177.929 135.717 178.132C135.309 178.336 135.105 178.642 135.105 179.049L130.674 217.861ZM294.936 201.205C294.936 206.401 293.102 210.832 289.435 214.499C285.767 218.166 281.336 220 276.141 220H228.925C223.73 220 219.35 218.166 215.784 214.499C212.219 210.832 210.436 206.401 210.436 201.205V19.6774C210.436 14.4822 212.219 10.0509 215.784 6.38371C219.35 2.71648 223.73 0.882864 228.925 0.882864H276.141C281.336 0.882864 285.767 2.71648 289.435 6.38371C293.102 10.0509 294.936 14.4822 294.936 19.6774V61.6978C294.936 63.1239 294.324 64.2445 293.102 65.0594L267.737 83.854C267.329 84.2615 266.82 84.3124 266.209 84.0068C265.598 83.7012 265.292 83.2428 265.292 82.6316V34.8048C265.292 32.4618 264.121 31.2903 261.778 31.2903H245.581C243.034 31.2903 241.761 32.4618 241.761 34.8048V187.453C241.761 188.268 242.117 189.083 242.83 189.898C243.543 190.611 244.46 190.968 245.581 190.968H261.778C262.796 190.968 263.611 190.611 264.222 189.898C264.936 189.083 265.292 188.268 265.292 187.453V131.375C265.292 130.764 265.598 130.306 266.209 130C266.82 129.694 267.329 129.745 267.737 130.153L293.102 148.947C294.324 149.762 294.936 150.832 294.936 152.156V201.205ZM371.795 2.86928C371.998 1.545 373.221 0.882864 375.462 0.882864H400.521C402.049 0.882864 402.559 1.64687 402.049 3.17488L388.908 73.1579C387.89 78.0475 386.158 82.1222 383.713 85.382C381.37 88.5399 379.18 90.8319 377.143 92.2581L365.53 99.8981C364.307 100.917 364.307 101.834 365.53 102.649L377.448 109.83C380.912 112.173 383.56 114.822 385.394 117.776C387.329 120.628 388.756 124.143 389.672 128.319L405.258 217.861C405.462 218.472 405.309 218.981 404.8 219.389C404.29 219.796 403.832 220 403.424 220H374.545C373.526 220 372.813 219.287 372.406 217.861L360.182 141.766C359.57 137.589 359.01 134.788 358.501 133.362C357.992 131.834 356.871 130.56 355.139 129.542L341.693 120.221C340.47 119.304 339.859 119.61 339.859 121.138L340.47 218.166C340.47 219.389 339.859 220 338.637 220H310.98C309.757 220 309.146 219.287 309.146 217.861V3.17488C309.146 1.64687 309.757 0.882864 310.98 0.882864H338.637C339.859 0.882864 340.47 1.545 340.47 2.86928L339.859 83.854C339.859 84.2615 340.012 84.618 340.318 84.9236C340.623 85.2292 341.082 85.1783 341.693 84.7708L353.306 76.6723C354.732 75.6537 356.056 74.5331 357.278 73.3107C358.603 71.9864 359.469 70.6112 359.876 69.1851L371.795 2.86928ZM522.304 220C520.98 220 520.317 219.287 520.317 217.861V33.1239C520.317 31.9015 519.604 31.2903 518.178 31.2903H490.98C489.452 31.2903 488.688 30.6791 488.688 29.4567V3.17488C488.688 1.64687 489.452 0.882864 490.98 0.882864H581.438C582.66 0.882864 583.272 1.64687 583.272 3.17488V29.4567C583.272 30.6791 582.66 31.2903 581.438 31.2903H553.781C552.355 31.2903 551.642 31.9015 551.642 33.1239V217.861C551.642 219.287 551.031 220 549.808 220H522.304ZM625.598 84.7708C625.598 86.2988 626.209 87.0628 627.431 87.0628H650.351C651.574 87.0628 652.185 86.2988 652.185 84.7708V3.17488C652.185 1.64687 652.898 0.882864 654.324 0.882864H681.676C682.898 0.882864 683.509 1.64687 683.509 3.17488V217.861C683.509 219.287 682.898 220 681.676 220H654.324C652.898 220 652.185 219.287 652.185 217.861V118.54C652.185 117.317 651.574 116.706 650.351 116.706H627.431C626.209 116.706 625.598 117.317 625.598 118.54V217.861C625.598 219.287 624.986 220 623.764 220H596.565C595.037 220 594.273 219.287 594.273 217.861V3.17488C594.273 1.64687 595.037 0.882864 596.565 0.882864H623.764C624.986 0.882864 625.598 1.64687 625.598 3.17488V84.7708ZM773.662 0.882864C774.885 0.882864 775.496 1.64687 775.496 3.17488V29.1511C775.496 30.5773 774.885 31.2903 773.662 31.2903H732.253C731.031 31.2903 730.419 31.9015 730.419 33.1239V84.7708C730.419 86.2988 731.031 87.0628 732.253 87.0628H768.314C769.74 87.0628 770.25 87.7759 769.842 89.202L762.66 114.873C762.253 116.095 761.438 116.706 760.216 116.706H732.253C731.031 116.706 730.419 117.317 730.419 118.54V188.981C730.419 190.306 731.031 190.968 732.253 190.968H773.662C774.885 190.968 775.496 191.681 775.496 193.107V217.861C775.496 219.287 774.885 220 773.662 220H700.929C699.706 220 699.095 219.287 699.095 217.861V3.17488C699.095 1.64687 699.706 0.882864 700.929 0.882864H773.662ZM939.91 190.204C941.336 190.204 942.049 190.968 942.049 192.496V217.861C942.049 219.287 941.336 220 939.91 220H867.482C866.26 220 865.649 219.287 865.649 217.861V3.17488C865.649 1.64687 866.26 0.882864 867.482 0.882864H894.834C896.26 0.882864 896.973 1.64687 896.973 3.17488V188.37C896.973 189.593 897.584 190.204 898.806 190.204H939.91ZM1029.15 0.882864C1030.37 0.882864 1030.98 1.64687 1030.98 3.17488V29.1511C1030.98 30.5773 1030.37 31.2903 1029.15 31.2903H987.737C986.514 31.2903 985.903 31.9015 985.903 33.1239V84.7708C985.903 86.2988 986.514 87.0628 987.737 87.0628H1023.8C1025.22 87.0628 1025.73 87.7759 1025.33 89.202L1018.14 114.873C1017.74 116.095 1016.92 116.706 1015.7 116.706H987.737C986.514 116.706 985.903 117.317 985.903 118.54V188.981C985.903 190.306 986.514 190.968 987.737 190.968H1029.15C1030.37 190.968 1030.98 191.681 1030.98 193.107V217.861C1030.98 219.287 1030.37 220 1029.15 220H956.413C955.19 220 954.579 219.287 954.579 217.861V3.17488C954.579 1.64687 955.19 0.882864 956.413 0.882864H1029.15ZM1097.3 148.031C1098.42 148.031 1098.98 147.521 1098.98 146.503L1088.59 51.6129C1088.38 50.798 1088.08 50.3905 1087.67 50.3905C1087.26 50.3905 1086.96 50.798 1086.75 51.6129L1076.36 146.503C1076.36 147.521 1076.87 148.031 1077.89 148.031H1097.3ZM1068.57 217.861C1068.57 219.287 1067.86 220 1066.43 220H1040.76C1039.43 220 1038.77 219.287 1038.77 217.861L1064.75 3.17488C1064.75 1.64687 1065.41 0.882864 1066.74 0.882864H1109.52C1110.84 0.882864 1111.51 1.64687 1111.51 3.17488L1137.48 217.861C1137.48 219.287 1136.82 220 1135.5 220H1108.91C1107.48 220 1106.77 219.287 1106.77 217.861L1102.34 179.049C1102.34 178.234 1101.73 177.827 1100.5 177.827H1074.83C1074.43 177.827 1074.02 177.929 1073.61 178.132C1073.2 178.336 1073 178.642 1073 179.049L1068.57 217.861ZM1215.72 0.882864C1220.91 0.882864 1225.29 2.71648 1228.86 6.38371C1232.52 10.0509 1234.36 14.4822 1234.36 19.6774V60.4754C1234.36 62.1053 1233.85 63.2258 1232.83 63.837L1206.85 83.2428C1206.45 83.6503 1205.99 83.7012 1205.48 83.3956C1204.97 83.09 1204.71 82.6316 1204.71 82.0204V33.1239C1204.71 31.9015 1204 31.2903 1202.58 31.2903H1181.79C1180.37 31.2903 1179.66 31.9015 1179.66 33.1239V188.981C1179.66 190.306 1180.37 190.968 1181.79 190.968H1202.58C1204 190.968 1204.71 190.306 1204.71 188.981V134.89C1204.71 133.464 1204 132.75 1202.58 132.75H1190.96C1189.43 132.75 1188.87 132.088 1189.28 130.764L1196.62 105.093C1197.02 103.871 1197.94 103.26 1199.37 103.26H1232.52C1233.75 103.26 1234.36 103.871 1234.36 105.093V217.861C1234.36 219.287 1233.75 220 1232.52 220H1215.26C1214.04 220 1213.22 219.389 1212.81 218.166L1209.45 207.47C1209.25 206.859 1208.89 206.553 1208.38 206.553C1207.97 206.553 1207.57 206.859 1207.16 207.47L1203.8 213.124C1202.07 216.078 1200.03 217.963 1197.69 218.778C1195.44 219.593 1192.64 220 1189.28 220H1167.13C1161.93 220 1157.5 218.166 1153.83 214.499C1150.16 210.832 1148.33 206.401 1148.33 201.205V19.6774C1148.33 14.4822 1150.16 10.0509 1153.83 6.38371C1157.5 2.71648 1161.93 0.882864 1167.13 0.882864H1215.72ZM1334.29 0.882864C1335.51 0.882864 1336.12 1.64687 1336.12 3.17488V203.039C1336.12 207.929 1334.24 212.003 1330.47 215.263C1326.8 218.421 1322.68 220 1318.09 220H1266.75C1262.17 220 1258.25 218.319 1254.99 214.958C1251.73 211.596 1250.1 207.878 1250.1 203.803V3.17488C1250.1 1.64687 1250.71 0.882864 1251.93 0.882864H1279.28C1280.71 0.882864 1281.42 1.64687 1281.42 3.17488V188.981C1281.42 190.306 1282.03 190.968 1283.25 190.968H1302.97C1304.29 190.968 1304.95 190.306 1304.95 188.981V3.17488C1304.95 1.64687 1305.67 0.882864 1307.09 0.882864H1334.29ZM1426.43 0.882864C1427.65 0.882864 1428.26 1.64687 1428.26 3.17488V29.1511C1428.26 30.5773 1427.65 31.2903 1426.43 31.2903H1385.02C1383.8 31.2903 1383.19 31.9015 1383.19 33.1239V84.7708C1383.19 86.2988 1383.8 87.0628 1385.02 87.0628H1421.08C1422.51 87.0628 1423.02 87.7759 1422.61 89.202L1415.43 114.873C1415.02 116.095 1414.21 116.706 1412.98 116.706H1385.02C1383.8 116.706 1383.19 117.317 1383.19 118.54V188.981C1383.19 190.306 1383.8 190.968 1385.02 190.968H1426.43C1427.65 190.968 1428.26 191.681 1428.26 193.107V217.861C1428.26 219.287 1427.65 220 1426.43 220H1353.7C1352.47 220 1351.86 219.287 1351.86 217.861V3.17488C1351.86 1.64687 1352.47 0.882864 1353.7 0.882864H1426.43Z"/>
</mask>
<path d="M31.1172 84.7708C31.1172 85.6417 31.287 86.4798 31.7947 87.1145C32.3366 87.7918 33.1189 88.0628 33.9508 88.0628V86.0628C33.5603 86.0628 33.4259 85.9519 33.3565 85.8651C33.253 85.7358 33.1172 85.428 33.1172 84.7708H31.1172ZM33.9508 88.0628H56.871V86.0628H33.9508V88.0628ZM56.871 88.0628C57.7029 88.0628 58.4853 87.7918 59.0271 87.1145C59.5348 86.4798 59.7046 85.6417 59.7046 84.7708H57.7046C57.7046 85.428 57.5688 85.7358 57.4654 85.8651C57.396 85.9519 57.2615 86.0628 56.871 86.0628V88.0628ZM59.7046 84.7708V3.17488H57.7046V84.7708H59.7046ZM59.7046 3.17488C59.7046 2.54852 59.8522 2.26497 59.9705 2.13819C60.0767 2.02441 60.3033 1.88286 60.8439 1.88286V-0.117136C59.9583 -0.117136 59.1153 0.123327 58.5084 0.773551C57.9136 1.41078 57.7046 2.27323 57.7046 3.17488H59.7046ZM60.8439 1.88286H88.1953V-0.117136H60.8439V1.88286ZM88.1953 1.88286C88.5858 1.88286 88.7203 1.99384 88.7896 2.08056C88.8931 2.2099 89.0289 2.51772 89.0289 3.17488H91.0289C91.0289 2.30404 90.8591 1.46585 90.3514 0.831174C89.8096 0.153893 89.0272 -0.117136 88.1953 -0.117136V1.88286ZM89.0289 3.17488V217.861H91.0289V3.17488H89.0289ZM89.0289 217.861C89.0289 218.454 88.8985 218.713 88.8113 218.814C88.7493 218.887 88.6086 219 88.1953 219V221C89.0044 221 89.7805 220.757 90.3298 220.116C90.8538 219.505 91.0289 218.694 91.0289 217.861H89.0289ZM88.1953 219H60.8439V221H88.1953V219ZM60.8439 219C60.2849 219 60.0494 218.861 59.9466 218.758C59.8437 218.655 59.7046 218.42 59.7046 217.861H57.7046C57.7046 218.728 57.9221 219.562 58.5323 220.172C59.1426 220.783 59.9766 221 60.8439 221V219ZM59.7046 217.861V118.54H57.7046V217.861H59.7046ZM59.7046 118.54C59.7046 117.775 59.5126 117.017 58.9533 116.458C58.3941 115.898 57.6364 115.706 56.871 115.706V117.706C57.3281 117.706 57.4872 117.82 57.5391 117.872C57.5911 117.924 57.7046 118.083 57.7046 118.54H59.7046ZM56.871 115.706H33.9508V117.706H56.871V115.706ZM33.9508 115.706C33.1855 115.706 32.4278 115.898 31.8685 116.458C31.3092 117.017 31.1172 117.775 31.1172 118.54H33.1172C33.1172 118.083 33.2308 117.924 33.2827 117.872C33.3346 117.82 33.4938 117.706 33.9508 117.706V115.706ZM31.1172 118.54V217.861H33.1172V118.54H31.1172ZM31.1172 217.861C31.1172 218.454 30.9868 218.713 30.8995 218.814C30.8376 218.887 30.6969 219 30.2836 219V221C31.0927 221 31.8688 220.757 32.4181 220.116C32.9421 219.505 33.1172 218.694 33.1172 217.861H31.1172ZM30.2836 219H3.08495V221H30.2836V219ZM3.08495 219C2.45859 219 2.17503 218.852 2.04825 218.734C1.93447 218.628 1.79293 218.401 1.79293 217.861H-0.20707C-0.20707 218.746 0.0333925 219.589 0.683617 220.196C1.32085 220.791 2.1833 221 3.08495 221V219ZM1.79293 217.861V3.17488H-0.20707V217.861H1.79293ZM1.79293 3.17488C1.79293 2.56502 1.94472 2.2913 2.07304 2.16298C2.20137 2.03465 2.47509 1.88286 3.08495 1.88286V-0.117136C2.1668 -0.117136 1.29451 0.11308 0.658828 0.748763C0.023145 1.38445 -0.20707 2.25673 -0.20707 3.17488H1.79293ZM3.08495 1.88286H30.2836V-0.117136H3.08495V1.88286ZM30.2836 1.88286C30.6741 1.88286 30.8086 1.99384 30.8779 2.08056C30.9814 2.2099 31.1172 2.51772 31.1172 3.17488H33.1172C33.1172 2.30404 32.9474 1.46585 32.4397 0.831174C31.8978 0.153893 31.1155 -0.117136 30.2836 -0.117136V1.88286ZM31.1172 3.17488V84.7708H33.1172V3.17488H31.1172ZM161.082 146.503H162.082V146.448L162.076 146.394L161.082 146.503ZM150.691 51.6129L151.685 51.5041L151.678 51.4364L151.661 51.3704L150.691 51.6129ZM148.857 51.6129L147.887 51.3704L147.871 51.4364L147.863 51.5041L148.857 51.6129ZM138.467 146.503L137.473 146.394L137.467 146.448V146.503H138.467ZM130.674 217.861L129.681 217.747L129.674 217.804V217.861H130.674ZM100.878 217.861L99.8851 217.741L99.8778 217.801V217.861H100.878ZM126.854 3.17488L127.847 3.29501L127.854 3.23516V3.17488H126.854ZM173.611 3.17488H172.611V3.23516L172.618 3.29501L173.611 3.17488ZM199.587 217.861H200.587V217.801L200.58 217.741L199.587 217.861ZM168.874 217.861H169.874V217.804L169.868 217.747L168.874 217.861ZM164.443 179.049H163.443V179.106L163.45 179.163L164.443 179.049ZM135.105 179.049L136.099 179.163L136.105 179.106V179.049H135.105ZM159.401 149.031C160.093 149.031 160.799 148.875 161.334 148.389C161.888 147.885 162.082 147.192 162.082 146.503H160.082C160.082 146.832 159.995 146.903 159.989 146.909C159.964 146.931 159.829 147.031 159.401 147.031V149.031ZM162.076 146.394L151.685 51.5041L149.697 51.7218L160.087 146.611L162.076 146.394ZM151.661 51.3704C151.545 50.9068 151.377 50.4537 151.109 50.0961C150.82 49.7104 150.371 49.3905 149.774 49.3905V51.3905C149.701 51.3905 149.625 51.3698 149.565 51.3351C149.51 51.3042 149.495 51.278 149.509 51.2961C149.523 51.3152 149.555 51.365 149.596 51.4627C149.636 51.5591 149.679 51.688 149.721 51.8554L151.661 51.3704ZM149.774 49.3905C149.178 49.3905 148.729 49.7104 148.439 50.0961C148.171 50.4537 148.003 50.9068 147.887 51.3704L149.828 51.8554C149.869 51.688 149.912 51.5591 149.952 51.4627C149.993 51.365 150.025 51.3152 150.039 51.2961C150.053 51.278 150.038 51.3042 149.984 51.3351C149.923 51.3698 149.848 51.3905 149.774 51.3905V49.3905ZM147.863 51.5041L137.473 146.394L139.461 146.611L149.851 51.7218L147.863 51.5041ZM137.467 146.503C137.467 147.166 137.633 147.847 138.142 148.356C138.65 148.864 139.331 149.031 139.995 149.031V147.031C139.64 147.031 139.557 146.942 139.556 146.941C139.555 146.94 139.467 146.858 139.467 146.503H137.467ZM139.995 149.031H159.401V147.031H139.995V149.031ZM129.674 217.861C129.674 218.42 129.535 218.655 129.432 218.758C129.329 218.861 129.094 219 128.535 219V221C129.402 221 130.236 220.783 130.846 220.172C131.457 219.562 131.674 218.728 131.674 217.861H129.674ZM128.535 219H102.864V221H128.535V219ZM102.864 219C102.376 219 102.188 218.872 102.107 218.785C102.013 218.683 101.878 218.437 101.878 217.861H99.8778C99.8778 218.71 100.074 219.534 100.642 220.146C101.223 220.771 102.028 221 102.864 221V219ZM101.871 217.981L127.847 3.29501L125.861 3.05476L99.8851 217.741L101.871 217.981ZM127.854 3.17488C127.854 2.53273 127.996 2.23782 128.106 2.1108C128.193 2.01114 128.373 1.88286 128.84 1.88286V-0.117136C127.984 -0.117136 127.171 0.136588 126.595 0.800939C126.043 1.43793 125.854 2.28903 125.854 3.17488H127.854ZM128.84 1.88286H171.625V-0.117136H128.84V1.88286ZM171.625 1.88286C172.093 1.88286 172.273 2.01114 172.359 2.1108C172.469 2.23782 172.611 2.53273 172.611 3.17488H174.611C174.611 2.28903 174.422 1.43793 173.87 0.800939C173.295 0.136588 172.481 -0.117136 171.625 -0.117136V1.88286ZM172.618 3.29501L198.595 217.981L200.58 217.741L174.604 3.05476L172.618 3.29501ZM198.587 217.861C198.587 218.437 198.452 218.683 198.358 218.785C198.277 218.872 198.089 219 197.601 219V221C198.437 221 199.243 220.771 199.824 220.146C200.392 219.534 200.587 218.71 200.587 217.861H198.587ZM197.601 219H171.014V221H197.601V219ZM171.014 219C170.455 219 170.219 218.861 170.116 218.758C170.013 218.655 169.874 218.42 169.874 217.861H167.874C167.874 218.728 168.092 219.562 168.702 220.172C169.312 220.783 170.146 221 171.014 221V219ZM169.868 217.747L165.437 178.936L163.45 179.163L167.881 217.974L169.868 217.747ZM165.443 179.049C165.443 178.35 165.157 177.712 164.539 177.3C163.993 176.936 163.3 176.827 162.61 176.827V178.827C163.141 178.827 163.365 178.921 163.43 178.964C163.449 178.977 163.441 178.976 163.434 178.962C163.429 178.951 163.443 178.971 163.443 179.049H165.443ZM162.61 176.827H136.939V178.827H162.61V176.827ZM136.939 176.827C136.359 176.827 135.799 176.973 135.269 177.238L136.164 179.027C136.449 178.884 136.704 178.827 136.939 178.827V176.827ZM135.269 177.238C134.947 177.399 134.645 177.631 134.426 177.96C134.203 178.295 134.105 178.671 134.105 179.049H136.105C136.105 179.031 136.107 179.029 136.105 179.037C136.102 179.047 136.097 179.059 136.09 179.069C136.084 179.079 136.081 179.08 136.089 179.073C136.099 179.065 136.121 179.048 136.164 179.027L135.269 177.238ZM134.112 178.936L129.681 217.747L131.668 217.974L136.099 179.163L134.112 178.936ZM293.102 65.0594L292.547 64.2274L292.527 64.2412L292.507 64.256L293.102 65.0594ZM267.737 83.854L267.142 83.0505L267.082 83.0946L267.03 83.1469L267.737 83.854ZM242.83 189.898L242.078 190.557L242.1 190.582L242.123 190.605L242.83 189.898ZM264.222 189.898L263.47 189.24L263.463 189.247L264.222 189.898ZM267.737 130.153L267.03 130.86L267.082 130.912L267.142 130.956L267.737 130.153ZM293.102 148.947L292.507 149.751L292.527 149.766L292.547 149.779L293.102 148.947ZM293.936 201.205C293.936 206.136 292.207 210.313 288.728 213.792L290.142 215.206C293.997 211.351 295.936 206.665 295.936 201.205H293.936ZM288.728 213.792C285.248 217.271 281.072 219 276.141 219V221C281.601 221 286.287 219.061 290.142 215.206L288.728 213.792ZM276.141 219H228.925V221H276.141V219ZM228.925 219C223.995 219 219.875 217.272 216.501 213.802L215.067 215.196C218.824 219.061 223.465 221 228.925 221V219ZM216.501 213.802C213.121 210.325 211.436 206.145 211.436 201.205H209.436C209.436 206.656 211.317 211.339 215.067 215.196L216.501 213.802ZM211.436 201.205V19.6774H209.436V201.205H211.436ZM211.436 19.6774C211.436 14.7379 213.121 10.5581 216.501 7.08079L215.067 5.68663C211.317 9.54379 209.436 14.2264 209.436 19.6774H211.436ZM216.501 7.08079C219.875 3.61063 223.995 1.88286 228.925 1.88286V-0.117136C223.465 -0.117136 218.824 1.82233 215.067 5.68663L216.501 7.08079ZM228.925 1.88286H276.141V-0.117136H228.925V1.88286ZM276.141 1.88286C281.072 1.88286 285.248 3.61149 288.728 7.09082L290.142 5.67661C286.287 1.82147 281.601 -0.117136 276.141 -0.117136V1.88286ZM288.728 7.09082C292.207 10.5701 293.936 14.7469 293.936 19.6774H295.936C295.936 14.2175 293.997 9.53174 290.142 5.67661L288.728 7.09082ZM293.936 19.6774V61.6978H295.936V19.6774H293.936ZM293.936 61.6978C293.936 62.7777 293.501 63.5912 292.547 64.2274L293.657 65.8915C295.147 64.8978 295.936 63.4702 295.936 61.6978H293.936ZM292.507 64.256L267.142 83.0505L268.332 84.6575L293.697 65.8629L292.507 64.256ZM267.03 83.1469C266.995 83.1821 266.972 83.1947 266.965 83.1983C266.959 83.2013 266.956 83.2022 266.95 83.2028C266.936 83.2041 266.848 83.2082 266.656 83.1124L265.762 84.9012C266.181 85.111 266.653 85.2424 267.149 85.1928C267.662 85.1415 268.099 84.9063 268.444 84.5611L267.03 83.1469ZM266.656 83.1124C266.469 83.0189 266.389 82.9326 266.353 82.8791C266.322 82.8319 266.292 82.7622 266.292 82.6316H264.292C264.292 83.1122 264.415 83.5773 264.689 83.9885C264.959 84.3934 265.337 84.6891 265.762 84.9012L266.656 83.1124ZM266.292 82.6316V34.8048H264.292V82.6316H266.292ZM266.292 34.8048C266.292 33.4791 265.96 32.3013 265.121 31.4618C264.281 30.6224 263.103 30.2903 261.778 30.2903V32.2903C262.795 32.2903 263.374 32.544 263.706 32.876C264.038 33.2081 264.292 33.7874 264.292 34.8048H266.292ZM261.778 30.2903H245.581V32.2903H261.778V30.2903ZM245.581 30.2903C244.173 30.2903 242.931 30.6124 242.039 31.433C241.131 32.2682 240.761 33.4567 240.761 34.8048H242.761C242.761 33.8099 243.027 33.2412 243.393 32.9049C243.774 32.554 244.442 32.2903 245.581 32.2903V30.2903ZM240.761 34.8048V187.453H242.761V34.8048H240.761ZM240.761 187.453C240.761 188.581 241.258 189.62 242.078 190.557L243.583 189.24C242.976 188.546 242.761 187.956 242.761 187.453H240.761ZM242.123 190.605C243.045 191.528 244.227 191.968 245.581 191.968V189.968C244.693 189.968 244.041 189.695 243.537 189.191L242.123 190.605ZM245.581 191.968H261.778V189.968H245.581V191.968ZM261.778 191.968C263.06 191.968 264.163 191.504 264.982 190.549L263.463 189.247C263.059 189.718 262.532 189.968 261.778 189.968V191.968ZM264.975 190.557C265.794 189.62 266.292 188.581 266.292 187.453H264.292C264.292 187.956 264.077 188.546 263.47 189.24L264.975 190.557ZM266.292 187.453V131.375H264.292V187.453H266.292ZM266.292 131.375C266.292 131.245 266.322 131.175 266.353 131.128C266.389 131.074 266.469 130.988 266.656 130.894L265.762 129.106C265.337 129.318 264.959 129.613 264.689 130.018C264.415 130.43 264.292 130.895 264.292 131.375H266.292ZM266.656 130.894C266.848 130.799 266.936 130.803 266.95 130.804C266.956 130.805 266.959 130.806 266.965 130.808C266.972 130.812 266.995 130.825 267.03 130.86L268.444 129.446C268.099 129.1 267.662 128.865 267.149 128.814C266.653 128.764 266.181 128.896 265.762 129.106L266.656 130.894ZM267.142 130.956L292.507 149.751L293.697 148.144L268.332 129.349L267.142 130.956ZM292.547 149.779C293.527 150.433 293.936 151.207 293.936 152.156H295.936C295.936 150.457 295.121 149.092 293.657 148.115L292.547 149.779ZM293.936 152.156V201.205H295.936V152.156H293.936ZM371.795 2.86928L372.779 3.04617L372.781 3.03378L372.783 3.02134L371.795 2.86928ZM402.049 3.17488L401.101 2.85866L401.079 2.92333L401.066 2.99034L402.049 3.17488ZM388.908 73.1579L389.887 73.3619L389.889 73.3522L389.891 73.3425L388.908 73.1579ZM383.713 85.382L382.913 84.782L382.91 84.7862L383.713 85.382ZM377.143 92.2581L377.692 93.0935L377.704 93.0856L377.716 93.0773L377.143 92.2581ZM365.53 99.8981L364.98 99.0627L364.933 99.0938L364.89 99.1299L365.53 99.8981ZM365.53 102.649L364.975 103.481L364.994 103.493L365.014 103.505L365.53 102.649ZM377.448 109.83L378.009 109.002L377.987 108.987L377.964 108.974L377.448 109.83ZM385.394 117.776L384.544 118.303L384.555 118.321L384.566 118.337L385.394 117.776ZM389.672 128.319L390.658 128.148L390.654 128.126L390.649 128.105L389.672 128.319ZM405.258 217.861L404.273 218.032L404.286 218.106L404.309 218.177L405.258 217.861ZM372.406 217.861L371.418 218.019L371.428 218.078L371.444 218.136L372.406 217.861ZM360.182 141.766L359.192 141.911L359.194 141.924L360.182 141.766ZM358.501 133.362L357.552 133.678L357.556 133.688L357.559 133.698L358.501 133.362ZM355.139 129.542L354.57 130.363L354.6 130.385L354.632 130.404L355.139 129.542ZM341.693 120.221L341.093 121.021L341.108 121.032L341.123 121.043L341.693 120.221ZM339.859 121.138H338.859L338.859 121.144L339.859 121.138ZM340.47 218.166H341.47L341.47 218.16L340.47 218.166ZM340.47 2.86928L341.47 2.87683V2.86928H340.47ZM339.859 83.854L338.859 83.8465V83.854H339.859ZM341.693 84.7708L342.247 85.6029L342.256 85.597L342.265 85.5911L341.693 84.7708ZM353.306 76.6723L353.878 77.4926L353.887 77.4861L353.306 76.6723ZM357.278 73.3107L356.571 72.6036L357.278 73.3107ZM359.876 69.1851L360.838 69.4598L360.851 69.4114L360.86 69.362L359.876 69.1851ZM372.783 3.02134C372.835 2.68171 372.992 2.4474 373.34 2.25876C373.742 2.0412 374.417 1.88286 375.462 1.88286V-0.117136C374.266 -0.117136 373.209 0.0555981 372.388 0.500177C371.514 0.973673 370.958 1.73257 370.806 2.71722L372.783 3.02134ZM375.462 1.88286H400.521V-0.117136H375.462V1.88286ZM400.521 1.88286C401.176 1.88286 401.245 2.05251 401.217 2.01057C401.206 1.99423 401.328 2.17503 401.101 2.85866L402.998 3.49111C403.279 2.64673 403.402 1.68152 402.881 0.901169C402.344 0.0952217 401.395 -0.117136 400.521 -0.117136V1.88286ZM401.066 2.99034L387.926 72.9734L389.891 73.3425L403.032 3.35943L401.066 2.99034ZM387.929 72.9539C386.934 77.7318 385.252 81.663 382.913 84.782L384.513 85.982C387.063 82.5815 388.845 78.3633 389.887 73.3619L387.929 72.9539ZM382.91 84.7862C380.598 87.9018 378.483 90.0994 376.569 91.4388L377.716 93.0773C379.877 91.5644 382.142 89.178 384.516 85.9779L382.91 84.7862ZM376.593 91.4227L364.98 99.0627L366.079 100.734L377.692 93.0935L376.593 91.4227ZM364.89 99.1299C364.211 99.6957 363.613 100.435 363.613 101.35C363.613 102.307 364.258 103.003 364.975 103.481L366.084 101.817C365.845 101.657 365.719 101.527 365.659 101.442C365.631 101.401 365.62 101.376 365.616 101.364C365.613 101.354 365.613 101.351 365.613 101.35C365.613 101.347 365.626 101.119 366.17 100.666L364.89 99.1299ZM365.014 103.505L376.932 110.687L377.964 108.974L366.046 101.792L365.014 103.505ZM376.888 110.659C380.258 112.938 382.798 115.49 384.544 118.303L386.244 117.249C384.322 114.153 381.565 111.408 378.009 109.002L376.888 110.659ZM384.566 118.337C386.416 121.063 387.8 124.452 388.696 128.534L390.649 128.105C389.711 123.833 388.243 120.194 386.221 117.214L384.566 118.337ZM388.687 128.491L404.273 218.032L406.243 217.689L390.658 128.148L388.687 128.491ZM404.309 218.177C404.36 218.329 404.344 218.395 404.338 218.414C404.333 218.434 404.307 218.502 404.175 218.608L405.424 220.17C405.801 219.868 406.107 219.478 406.254 218.989C406.401 218.498 406.36 218.004 406.207 217.545L404.309 218.177ZM404.175 218.608C403.744 218.953 403.504 219 403.424 219V221C404.16 221 404.837 220.639 405.424 220.17L404.175 218.608ZM403.424 219H374.545V221H403.424V219ZM374.545 219C374.298 219 374.12 218.925 373.953 218.758C373.76 218.565 373.545 218.207 373.367 217.586L371.444 218.136C371.674 218.94 372.019 219.652 372.539 220.172C373.085 220.719 373.773 221 374.545 221V219ZM373.393 217.702L361.169 141.607L359.194 141.924L371.418 218.019L373.393 217.702ZM361.171 141.621C360.562 137.456 359.99 134.559 359.443 133.025L357.559 133.698C358.03 135.017 358.579 137.723 359.192 141.911L361.171 141.621ZM359.45 133.045C358.846 131.235 357.533 129.789 355.646 128.68L354.632 130.404C356.209 131.331 357.137 132.432 357.552 133.678L359.45 133.045ZM355.709 128.72L342.262 119.399L341.123 121.043L354.57 130.363L355.709 128.72ZM342.293 119.421C341.945 119.16 341.579 118.938 341.207 118.814C340.831 118.688 340.344 118.631 339.87 118.868C339.397 119.105 339.15 119.529 339.025 119.904C338.901 120.277 338.859 120.703 338.859 121.138H340.859C340.859 120.979 340.867 120.849 340.88 120.746C340.893 120.642 340.91 120.575 340.922 120.537C340.935 120.499 340.939 120.505 340.917 120.534C340.892 120.567 340.843 120.618 340.765 120.657C340.687 120.696 340.617 120.705 340.575 120.705C340.539 120.705 340.536 120.698 340.574 120.711C340.612 120.724 340.676 120.75 340.767 120.802C340.857 120.854 340.966 120.925 341.093 121.021L342.293 119.421ZM338.859 121.144L339.47 218.173L341.47 218.16L340.859 121.131L338.859 121.144ZM339.47 218.166C339.47 218.623 339.357 218.783 339.305 218.834C339.253 218.886 339.094 219 338.637 219V221C339.402 221 340.16 220.808 340.719 220.249C341.278 219.689 341.47 218.932 341.47 218.166H339.47ZM338.637 219H310.98V221H338.637V219ZM310.98 219C310.566 219 310.426 218.887 310.364 218.814C310.276 218.713 310.146 218.454 310.146 217.861H308.146C308.146 218.694 308.321 219.505 308.845 220.116C309.394 220.757 310.171 221 310.98 221V219ZM310.146 217.861V3.17488H308.146V217.861H310.146ZM310.146 3.17488C310.146 2.51772 310.282 2.2099 310.385 2.08056C310.455 1.99384 310.589 1.88286 310.98 1.88286V-0.117136C310.148 -0.117136 309.365 0.153893 308.824 0.831174C308.316 1.46585 308.146 2.30404 308.146 3.17488H310.146ZM310.98 1.88286H338.637V-0.117136H310.98V1.88286ZM338.637 1.88286C339.072 1.88286 339.221 1.99712 339.277 2.05775C339.347 2.13351 339.47 2.34231 339.47 2.86928H341.47C341.47 2.07198 341.288 1.28757 340.747 0.701189C340.191 0.0996822 339.424 -0.117136 338.637 -0.117136V1.88286ZM339.47 2.86174L338.859 83.8465L340.859 83.8615L341.47 2.87683L339.47 2.86174ZM338.859 83.854C338.859 84.544 339.13 85.1502 339.61 85.6307L341.025 84.2165C340.894 84.0858 340.859 83.9789 340.859 83.854H338.859ZM339.61 85.6307C339.994 86.0144 340.493 86.1649 341.001 86.1085C341.456 86.0579 341.879 85.8482 342.247 85.6029L341.138 83.9388C341.024 84.0151 340.934 84.0625 340.869 84.0904C340.803 84.1186 340.775 84.1212 340.78 84.1207C340.788 84.1198 340.831 84.1171 340.892 84.1373C340.954 84.1581 340.999 84.1914 341.025 84.2165L339.61 85.6307ZM342.265 85.5911L353.878 77.4926L352.734 75.8521L341.121 83.9506L342.265 85.5911ZM353.887 77.4861C355.357 76.4358 356.724 75.2797 357.986 74.0178L356.571 72.6036C355.388 73.7865 354.106 74.8715 352.724 75.8586L353.887 77.4861ZM357.986 74.0178C359.399 72.6043 360.373 71.0869 360.838 69.4598L358.915 68.9103C358.565 70.1356 357.806 71.3685 356.571 72.6036L357.986 74.0178ZM360.86 69.362L372.779 3.04617L370.81 2.69239L358.892 69.0082L360.86 69.362ZM522.304 219C521.816 219 521.628 218.872 521.547 218.785C521.453 218.683 521.317 218.437 521.317 217.861H519.317C519.317 218.71 519.513 219.534 520.081 220.146C520.662 220.771 521.468 221 522.304 221V219ZM521.317 217.861V33.1239H519.317V217.861H521.317ZM521.317 33.1239C521.317 32.3149 521.074 31.5388 520.433 30.9895C519.822 30.4655 519.011 30.2903 518.178 30.2903V32.2903C518.772 32.2903 519.03 32.4208 519.132 32.508C519.204 32.5699 519.317 32.7106 519.317 33.1239H521.317ZM518.178 30.2903H490.98V32.2903H518.178V30.2903ZM490.98 30.2903C490.322 30.2903 490.015 30.1545 489.885 30.0511C489.799 29.9817 489.688 29.8472 489.688 29.4567H487.688C487.688 30.2886 487.959 31.071 488.636 31.6128C489.271 32.1205 490.109 32.2903 490.98 32.2903V30.2903ZM489.688 29.4567V3.17488H487.688V29.4567H489.688ZM489.688 3.17488C489.688 2.56502 489.839 2.2913 489.968 2.16298C490.096 2.03465 490.37 1.88286 490.98 1.88286V-0.117136C490.061 -0.117136 489.189 0.11308 488.554 0.748763C487.918 1.38445 487.688 2.25673 487.688 3.17488H489.688ZM490.98 1.88286H581.438V-0.117136H490.98V1.88286ZM581.438 1.88286C581.829 1.88286 581.963 1.99384 582.032 2.08056C582.136 2.2099 582.272 2.51772 582.272 3.17488H584.272C584.272 2.30404 584.102 1.46585 583.594 0.831174C583.052 0.153893 582.27 -0.117136 581.438 -0.117136V1.88286ZM582.272 3.17488V29.4567H584.272V3.17488H582.272ZM582.272 29.4567C582.272 29.9138 582.158 30.0729 582.106 30.1248C582.054 30.1767 581.895 30.2903 581.438 30.2903V32.2903C582.203 32.2903 582.961 32.0983 583.52 31.539C584.08 30.9798 584.272 30.2221 584.272 29.4567H582.272ZM581.438 30.2903H553.781V32.2903H581.438V30.2903ZM553.781 30.2903C552.948 30.2903 552.137 30.4655 551.526 30.9895C550.885 31.5388 550.642 32.3149 550.642 33.1239H552.642C552.642 32.7106 552.755 32.5699 552.827 32.508C552.929 32.4208 553.188 32.2903 553.781 32.2903V30.2903ZM550.642 33.1239V217.861H552.642V33.1239H550.642ZM550.642 217.861C550.642 218.454 550.511 218.713 550.424 218.814C550.362 218.887 550.222 219 549.808 219V221C550.617 221 551.393 220.757 551.943 220.116C552.467 219.505 552.642 218.694 552.642 217.861H550.642ZM549.808 219H522.304V221H549.808V219ZM624.598 84.7708C624.598 85.6417 624.767 86.4798 625.275 87.1145C625.817 87.7918 626.599 88.0628 627.431 88.0628V86.0628C627.041 86.0628 626.906 85.9519 626.837 85.8651C626.733 85.7358 626.598 85.428 626.598 84.7708H624.598ZM627.431 88.0628H650.351V86.0628H627.431V88.0628ZM650.351 88.0628C651.183 88.0628 651.966 87.7918 652.508 87.1145C653.015 86.4798 653.185 85.6417 653.185 84.7708H651.185C651.185 85.428 651.049 85.7358 650.946 85.8651C650.876 85.9519 650.742 86.0628 650.351 86.0628V88.0628ZM653.185 84.7708V3.17488H651.185V84.7708H653.185ZM653.185 3.17488C653.185 2.54852 653.333 2.26497 653.451 2.13819C653.557 2.02441 653.784 1.88286 654.324 1.88286V-0.117136C653.439 -0.117136 652.596 0.123327 651.989 0.773551C651.394 1.41078 651.185 2.27323 651.185 3.17488H653.185ZM654.324 1.88286H681.676V-0.117136H654.324V1.88286ZM681.676 1.88286C682.066 1.88286 682.201 1.99384 682.27 2.08056C682.374 2.2099 682.509 2.51772 682.509 3.17488H684.509C684.509 2.30404 684.34 1.46585 683.832 0.831174C683.29 0.153893 682.508 -0.117136 681.676 -0.117136V1.88286ZM682.509 3.17488V217.861H684.509V3.17488H682.509ZM682.509 217.861C682.509 218.454 682.379 218.713 682.292 218.814C682.23 218.887 682.089 219 681.676 219V221C682.485 221 683.261 220.757 683.81 220.116C684.334 219.505 684.509 218.694 684.509 217.861H682.509ZM681.676 219H654.324V221H681.676V219ZM654.324 219C653.765 219 653.53 218.861 653.427 218.758C653.324 218.655 653.185 218.42 653.185 217.861H651.185C651.185 218.728 651.403 219.562 652.013 220.172C652.623 220.783 653.457 221 654.324 221V219ZM653.185 217.861V118.54H651.185V217.861H653.185ZM653.185 118.54C653.185 117.775 652.993 117.017 652.434 116.458C651.875 115.898 651.117 115.706 650.351 115.706V117.706C650.809 117.706 650.968 117.82 651.02 117.872C651.072 117.924 651.185 118.083 651.185 118.54H653.185ZM650.351 115.706H627.431V117.706H650.351V115.706ZM627.431 115.706C626.666 115.706 625.908 115.898 625.349 116.458C624.79 117.017 624.598 117.775 624.598 118.54H626.598C626.598 118.083 626.711 117.924 626.763 117.872C626.815 117.82 626.974 117.706 627.431 117.706V115.706ZM624.598 118.54V217.861H626.598V118.54H624.598ZM624.598 217.861C624.598 218.454 624.467 218.713 624.38 218.814C624.318 218.887 624.177 219 623.764 219V221C624.573 221 625.349 220.757 625.899 220.116C626.423 219.505 626.598 218.694 626.598 217.861H624.598ZM623.764 219H596.565V221H623.764V219ZM596.565 219C595.939 219 595.655 218.852 595.529 218.734C595.415 218.628 595.273 218.401 595.273 217.861H593.273C593.273 218.746 593.514 219.589 594.164 220.196C594.801 220.791 595.664 221 596.565 221V219ZM595.273 217.861V3.17488H593.273V217.861H595.273ZM595.273 3.17488C595.273 2.56502 595.425 2.2913 595.554 2.16298C595.682 2.03465 595.956 1.88286 596.565 1.88286V-0.117136C595.647 -0.117136 594.775 0.11308 594.139 0.748763C593.504 1.38445 593.273 2.25673 593.273 3.17488H595.273ZM596.565 1.88286H623.764V-0.117136H596.565V1.88286ZM623.764 1.88286C624.155 1.88286 624.289 1.99384 624.358 2.08056C624.462 2.2099 624.598 2.51772 624.598 3.17488H626.598C626.598 2.30404 626.428 1.46585 625.92 0.831174C625.378 0.153893 624.596 -0.117136 623.764 -0.117136V1.88286ZM624.598 3.17488V84.7708H626.598V3.17488H624.598ZM769.842 89.202L768.881 88.9273L768.879 88.9326L769.842 89.202ZM762.66 114.873L763.609 115.189L763.617 115.166L763.623 115.142L762.66 114.873ZM773.662 1.88286C774.053 1.88286 774.187 1.99384 774.257 2.08056C774.36 2.2099 774.496 2.51772 774.496 3.17488H776.496C776.496 2.30404 776.326 1.46585 775.818 0.831174C775.276 0.153893 774.494 -0.117136 773.662 -0.117136V1.88286ZM774.496 3.17488V29.1511H776.496V3.17488H774.496ZM774.496 29.1511C774.496 29.7445 774.365 30.003 774.278 30.1047C774.216 30.177 774.076 30.2903 773.662 30.2903V32.2903C774.471 32.2903 775.247 32.0471 775.797 31.4063C776.321 30.795 776.496 29.9838 776.496 29.1511H774.496ZM773.662 30.2903H732.253V32.2903H773.662V30.2903ZM732.253 30.2903C731.488 30.2903 730.73 30.4823 730.171 31.0416C729.611 31.6009 729.419 32.3586 729.419 33.1239H731.419C731.419 32.6669 731.533 32.5078 731.585 32.4558C731.637 32.4039 731.796 32.2903 732.253 32.2903V30.2903ZM729.419 33.1239V84.7708H731.419V33.1239H729.419ZM729.419 84.7708C729.419 85.6417 729.589 86.4798 730.097 87.1145C730.639 87.7918 731.421 88.0628 732.253 88.0628V86.0628C731.863 86.0628 731.728 85.9519 731.659 85.8651C731.555 85.7358 731.419 85.428 731.419 84.7708H729.419ZM732.253 88.0628H768.314V86.0628H732.253V88.0628ZM768.314 88.0628C768.909 88.0628 768.979 88.2163 768.952 88.1789C768.937 88.1582 769.057 88.3096 768.881 88.9273L770.804 89.4768C771.035 88.6684 771.104 87.7501 770.579 87.0164C770.043 86.2659 769.145 86.0628 768.314 86.0628V88.0628ZM768.879 88.9326L761.697 114.603L763.623 115.142L770.805 89.4715L768.879 88.9326ZM761.712 114.556C761.555 115.026 761.35 115.293 761.144 115.448C760.942 115.599 760.655 115.706 760.216 115.706V117.706C760.999 117.706 761.731 117.508 762.344 117.048C762.952 116.591 763.358 115.942 763.609 115.189L761.712 114.556ZM760.216 115.706H732.253V117.706H760.216V115.706ZM732.253 115.706C731.488 115.706 730.73 115.898 730.171 116.458C729.611 117.017 729.419 117.775 729.419 118.54H731.419C731.419 118.083 731.533 117.924 731.585 117.872C731.637 117.82 731.796 117.706 732.253 117.706V115.706ZM729.419 118.54V188.981H731.419V118.54H729.419ZM729.419 188.981C729.419 189.779 729.602 190.563 730.143 191.149C730.698 191.751 731.466 191.968 732.253 191.968V189.968C731.817 189.968 731.669 189.853 731.613 189.793C731.543 189.717 731.419 189.508 731.419 188.981H729.419ZM732.253 191.968H773.662V189.968H732.253V191.968ZM773.662 191.968C774.076 191.968 774.216 192.081 774.278 192.153C774.365 192.255 774.496 192.514 774.496 193.107H776.496C776.496 192.274 776.321 191.463 775.797 190.852C775.247 190.211 774.471 189.968 773.662 189.968V191.968ZM774.496 193.107V217.861H776.496V193.107H774.496ZM774.496 217.861C774.496 218.454 774.365 218.713 774.278 218.814C774.216 218.887 774.076 219 773.662 219V221C774.471 221 775.247 220.757 775.797 220.116C776.321 219.505 776.496 218.694 776.496 217.861H774.496ZM773.662 219H700.929V221H773.662V219ZM700.929 219C700.515 219 700.375 218.887 700.313 218.814C700.226 218.713 700.095 218.454 700.095 217.861H698.095C698.095 218.694 698.27 219.505 698.794 220.116C699.344 220.757 700.12 221 700.929 221V219ZM700.095 217.861V3.17488H698.095V217.861H700.095ZM700.095 3.17488C700.095 2.51772 700.231 2.2099 700.334 2.08056C700.404 1.99384 700.538 1.88286 700.929 1.88286V-0.117136C700.097 -0.117136 699.314 0.153893 698.773 0.831174C698.265 1.46585 698.095 2.30404 698.095 3.17488H700.095ZM700.929 1.88286H773.662V-0.117136H700.929V1.88286ZM939.91 191.204C940.451 191.204 940.677 191.345 940.783 191.459C940.902 191.586 941.049 191.869 941.049 192.496H943.049C943.049 191.594 942.84 190.732 942.246 190.094C941.639 189.444 940.796 189.204 939.91 189.204V191.204ZM941.049 192.496V217.861H943.049V192.496H941.049ZM941.049 217.861C941.049 218.42 940.91 218.655 940.807 218.758C940.704 218.861 940.469 219 939.91 219V221C940.777 221 941.611 220.783 942.222 220.172C942.832 219.562 943.049 218.728 943.049 217.861H941.049ZM939.91 219H867.482V221H939.91V219ZM867.482 219C867.069 219 866.928 218.887 866.866 218.814C866.779 218.713 866.649 218.454 866.649 217.861H864.649C864.649 218.694 864.824 219.505 865.348 220.116C865.897 220.757 866.673 221 867.482 221V219ZM866.649 217.861V3.17488H864.649V217.861H866.649ZM866.649 3.17488C866.649 2.51772 866.784 2.2099 866.888 2.08056C866.957 1.99384 867.092 1.88286 867.482 1.88286V-0.117136C866.65 -0.117136 865.868 0.153893 865.326 0.831174C864.818 1.46585 864.649 2.30404 864.649 3.17488H866.649ZM867.482 1.88286H894.834V-0.117136H867.482V1.88286ZM894.834 1.88286C895.374 1.88286 895.601 2.02441 895.707 2.13819C895.825 2.26497 895.973 2.54852 895.973 3.17488H897.973C897.973 2.27323 897.764 1.41078 897.169 0.773551C896.562 0.123327 895.719 -0.117136 894.834 -0.117136V1.88286ZM895.973 3.17488V188.37H897.973V3.17488H895.973ZM895.973 188.37C895.973 189.135 896.165 189.893 896.724 190.452C897.283 191.012 898.041 191.204 898.806 191.204V189.204C898.349 189.204 898.19 189.09 898.138 189.038C898.086 188.986 897.973 188.827 897.973 188.37H895.973ZM898.806 191.204H939.91V189.204H898.806V191.204ZM1025.33 89.202L1024.36 88.9273L1024.36 88.9326L1025.33 89.202ZM1018.14 114.873L1019.09 115.189L1019.1 115.166L1019.11 115.142L1018.14 114.873ZM1029.15 1.88286C1029.54 1.88286 1029.67 1.99384 1029.74 2.08056C1029.84 2.2099 1029.98 2.51772 1029.98 3.17488H1031.98C1031.98 2.30404 1031.81 1.46585 1031.3 0.831174C1030.76 0.153893 1029.98 -0.117136 1029.15 -0.117136V1.88286ZM1029.98 3.17488V29.1511H1031.98V3.17488H1029.98ZM1029.98 29.1511C1029.98 29.7445 1029.85 30.003 1029.76 30.1047C1029.7 30.177 1029.56 30.2903 1029.15 30.2903V32.2903C1029.96 32.2903 1030.73 32.0471 1031.28 31.4063C1031.8 30.795 1031.98 29.9838 1031.98 29.1511H1029.98ZM1029.15 30.2903H987.737V32.2903H1029.15V30.2903ZM987.737 30.2903C986.971 30.2903 986.214 30.4823 985.655 31.0416C985.095 31.6009 984.903 32.3586 984.903 33.1239H986.903C986.903 32.6669 987.017 32.5078 987.069 32.4558C987.121 32.4039 987.28 32.2903 987.737 32.2903V30.2903ZM984.903 33.1239V84.7708H986.903V33.1239H984.903ZM984.903 84.7708C984.903 85.6417 985.073 86.4798 985.581 87.1145C986.123 87.7918 986.905 88.0628 987.737 88.0628V86.0628C987.346 86.0628 987.212 85.9519 987.142 85.8651C987.039 85.7358 986.903 85.428 986.903 84.7708H984.903ZM987.737 88.0628H1023.8V86.0628H987.737V88.0628ZM1023.8 88.0628C1024.39 88.0628 1024.46 88.2163 1024.44 88.1789C1024.42 88.1582 1024.54 88.3096 1024.36 88.9273L1026.29 89.4768C1026.52 88.6684 1026.59 87.7501 1026.06 87.0164C1025.53 86.2659 1024.63 86.0628 1023.8 86.0628V88.0628ZM1024.36 88.9326L1017.18 114.603L1019.11 115.142L1026.29 89.4715L1024.36 88.9326ZM1017.2 114.556C1017.04 115.026 1016.83 115.293 1016.63 115.448C1016.43 115.599 1016.14 115.706 1015.7 115.706V117.706C1016.48 117.706 1017.21 117.508 1017.83 117.048C1018.44 116.591 1018.84 115.942 1019.09 115.189L1017.2 114.556ZM1015.7 115.706H987.737V117.706H1015.7V115.706ZM987.737 115.706C986.971 115.706 986.214 115.898 985.655 116.458C985.095 117.017 984.903 117.775 984.903 118.54H986.903C986.903 118.083 987.017 117.924 987.069 117.872C987.121 117.82 987.28 117.706 987.737 117.706V115.706ZM984.903 118.54V188.981H986.903V118.54H984.903ZM984.903 188.981C984.903 189.779 985.086 190.563 985.627 191.149C986.182 191.751 986.95 191.968 987.737 191.968V189.968C987.301 189.968 987.152 189.853 987.096 189.793C987.026 189.717 986.903 189.508 986.903 188.981H984.903ZM987.737 191.968H1029.15V189.968H987.737V191.968ZM1029.15 191.968C1029.56 191.968 1029.7 192.081 1029.76 192.153C1029.85 192.255 1029.98 192.514 1029.98 193.107H1031.98C1031.98 192.274 1031.8 191.463 1031.28 190.852C1030.73 190.211 1029.96 189.968 1029.15 189.968V191.968ZM1029.98 193.107V217.861H1031.98V193.107H1029.98ZM1029.98 217.861C1029.98 218.454 1029.85 218.713 1029.76 218.814C1029.7 218.887 1029.56 219 1029.15 219V221C1029.96 221 1030.73 220.757 1031.28 220.116C1031.8 219.505 1031.98 218.694 1031.98 217.861H1029.98ZM1029.15 219H956.413V221H1029.15V219ZM956.413 219C955.999 219 955.859 218.887 955.797 218.814C955.709 218.713 955.579 218.454 955.579 217.861H953.579C953.579 218.694 953.754 219.505 954.278 220.116C954.827 220.757 955.603 221 956.413 221V219ZM955.579 217.861V3.17488H953.579V217.861H955.579ZM955.579 3.17488C955.579 2.51772 955.715 2.2099 955.818 2.08056C955.888 1.99384 956.022 1.88286 956.413 1.88286V-0.117136C955.581 -0.117136 954.798 0.153893 954.256 0.831174C953.749 1.46585 953.579 2.30404 953.579 3.17488H955.579ZM956.413 1.88286H1029.15V-0.117136H956.413V1.88286ZM1098.98 146.503H1099.98V146.448L1099.97 146.394L1098.98 146.503ZM1088.59 51.6129L1089.58 51.5041L1089.57 51.4364L1089.56 51.3704L1088.59 51.6129ZM1086.75 51.6129L1085.78 51.3704L1085.77 51.4364L1085.76 51.5041L1086.75 51.6129ZM1076.36 146.503L1075.37 146.394L1075.36 146.448V146.503H1076.36ZM1068.57 217.861L1067.58 217.747L1067.57 217.804V217.861H1068.57ZM1038.77 217.861L1037.78 217.741L1037.77 217.801V217.861H1038.77ZM1064.75 3.17488L1065.74 3.29501L1065.75 3.23516V3.17488H1064.75ZM1111.51 3.17488H1110.51V3.23516L1110.51 3.29501L1111.51 3.17488ZM1137.48 217.861H1138.48V217.801L1138.48 217.741L1137.48 217.861ZM1106.77 217.861H1107.77V217.804L1107.76 217.747L1106.77 217.861ZM1102.34 179.049H1101.34V179.106L1101.34 179.163L1102.34 179.049ZM1073 179.049L1073.99 179.163L1074 179.106V179.049H1073ZM1097.3 149.031C1097.99 149.031 1098.69 148.875 1099.23 148.389C1099.78 147.885 1099.98 147.192 1099.98 146.503H1097.98C1097.98 146.832 1097.89 146.903 1097.88 146.909C1097.86 146.931 1097.72 147.031 1097.3 147.031V149.031ZM1099.97 146.394L1089.58 51.5041L1087.59 51.7218L1097.98 146.611L1099.97 146.394ZM1089.56 51.3704C1089.44 50.9068 1089.27 50.4537 1089 50.0961C1088.71 49.7104 1088.27 49.3905 1087.67 49.3905V51.3905C1087.6 51.3905 1087.52 51.3698 1087.46 51.3351C1087.41 51.3042 1087.39 51.278 1087.4 51.2961C1087.42 51.3152 1087.45 51.365 1087.49 51.4627C1087.53 51.5591 1087.57 51.688 1087.62 51.8554L1089.56 51.3704ZM1087.67 49.3905C1087.07 49.3905 1086.62 49.7104 1086.33 50.0961C1086.07 50.4537 1085.9 50.9068 1085.78 51.3704L1087.72 51.8554C1087.76 51.688 1087.81 51.5591 1087.85 51.4627C1087.89 51.365 1087.92 51.3152 1087.93 51.2961C1087.95 51.278 1087.93 51.3042 1087.88 51.3351C1087.82 51.3698 1087.74 51.3905 1087.67 51.3905V49.3905ZM1085.76 51.5041L1075.37 146.394L1077.36 146.611L1087.75 51.7218L1085.76 51.5041ZM1075.36 146.503C1075.36 147.166 1075.53 147.847 1076.04 148.356C1076.54 148.864 1077.23 149.031 1077.89 149.031V147.031C1077.53 147.031 1077.45 146.942 1077.45 146.941C1077.45 146.94 1077.36 146.858 1077.36 146.503H1075.36ZM1077.89 149.031H1097.3V147.031H1077.89V149.031ZM1067.57 217.861C1067.57 218.42 1067.43 218.655 1067.33 218.758C1067.22 218.861 1066.99 219 1066.43 219V221C1067.3 221 1068.13 220.783 1068.74 220.172C1069.35 219.562 1069.57 218.728 1069.57 217.861H1067.57ZM1066.43 219H1040.76V221H1066.43V219ZM1040.76 219C1040.27 219 1040.08 218.872 1040 218.785C1039.91 218.683 1039.77 218.437 1039.77 217.861H1037.77C1037.77 218.71 1037.97 219.534 1038.54 220.146C1039.12 220.771 1039.92 221 1040.76 221V219ZM1039.77 217.981L1065.74 3.29501L1063.76 3.05476L1037.78 217.741L1039.77 217.981ZM1065.75 3.17488C1065.75 2.53273 1065.89 2.23782 1066 2.1108C1066.09 2.01114 1066.27 1.88286 1066.74 1.88286V-0.117136C1065.88 -0.117136 1065.07 0.136588 1064.49 0.800939C1063.94 1.43793 1063.75 2.28903 1063.75 3.17488H1065.75ZM1066.74 1.88286H1109.52V-0.117136H1066.74V1.88286ZM1109.52 1.88286C1109.99 1.88286 1110.17 2.01114 1110.25 2.1108C1110.36 2.23782 1110.51 2.53273 1110.51 3.17488H1112.51C1112.51 2.28903 1112.32 1.43793 1111.77 0.800939C1111.19 0.136588 1110.38 -0.117136 1109.52 -0.117136V1.88286ZM1110.51 3.29501L1136.49 217.981L1138.48 217.741L1112.5 3.05476L1110.51 3.29501ZM1136.48 217.861C1136.48 218.437 1136.35 218.683 1136.25 218.785C1136.17 218.872 1135.98 219 1135.5 219V221C1136.33 221 1137.14 220.771 1137.72 220.146C1138.29 219.534 1138.48 218.71 1138.48 217.861H1136.48ZM1135.5 219H1108.91V221H1135.5V219ZM1108.91 219C1108.35 219 1108.11 218.861 1108.01 218.758C1107.91 218.655 1107.77 218.42 1107.77 217.861H1105.77C1105.77 218.728 1105.99 219.562 1106.6 220.172C1107.21 220.783 1108.04 221 1108.91 221V219ZM1107.76 217.747L1103.33 178.936L1101.34 179.163L1105.78 217.974L1107.76 217.747ZM1103.34 179.049C1103.34 178.35 1103.05 177.712 1102.43 177.3C1101.89 176.936 1101.2 176.827 1100.5 176.827V178.827C1101.04 178.827 1101.26 178.921 1101.32 178.964C1101.34 178.977 1101.34 178.976 1101.33 178.962C1101.32 178.951 1101.34 178.971 1101.34 179.049H1103.34ZM1100.5 176.827H1074.83V178.827H1100.5V176.827ZM1074.83 176.827C1074.25 176.827 1073.69 176.973 1073.16 177.238L1074.06 179.027C1074.34 178.884 1074.6 178.827 1074.83 178.827V176.827ZM1073.16 177.238C1072.84 177.399 1072.54 177.631 1072.32 177.96C1072.1 178.295 1072 178.671 1072 179.049H1074C1074 179.031 1074 179.029 1074 179.037C1074 179.047 1073.99 179.059 1073.98 179.069C1073.98 179.079 1073.98 179.08 1073.98 179.073C1073.99 179.065 1074.02 179.048 1074.06 179.027L1073.16 177.238ZM1072.01 178.936L1067.58 217.747L1069.56 217.974L1073.99 179.163L1072.01 178.936ZM1228.86 6.38371L1228.14 7.08086L1228.15 7.09082L1228.86 6.38371ZM1232.83 63.837L1232.32 62.9795L1232.27 63.0056L1232.23 63.0359L1232.83 63.837ZM1206.85 83.2428L1206.26 82.4417L1206.2 82.4848L1206.15 82.5357L1206.85 83.2428ZM1189.28 130.764L1190.24 131.058L1190.24 131.048L1190.24 131.039L1189.28 130.764ZM1196.62 105.093L1195.67 104.777L1195.66 104.798L1195.65 104.819L1196.62 105.093ZM1212.81 218.166L1211.86 218.466L1211.86 218.474L1211.86 218.483L1212.81 218.166ZM1209.45 207.47L1210.41 207.17L1210.4 207.162L1210.4 207.154L1209.45 207.47ZM1207.16 207.47L1206.33 206.916L1206.31 206.937L1206.3 206.959L1207.16 207.47ZM1203.8 213.124L1202.94 212.613L1202.94 212.618L1203.8 213.124ZM1197.69 218.778L1197.36 217.833L1197.34 217.838L1197.69 218.778ZM1215.72 1.88286C1220.65 1.88286 1224.77 3.61063 1228.14 7.08079L1229.57 5.68663C1225.82 1.82233 1221.18 -0.117136 1215.72 -0.117136V1.88286ZM1228.15 7.09082C1231.63 10.5701 1233.36 14.7469 1233.36 19.6774H1235.36C1235.36 14.2175 1233.42 9.53174 1229.56 5.67661L1228.15 7.09082ZM1233.36 19.6774V60.4754H1235.36V19.6774H1233.36ZM1233.36 60.4754C1233.36 61.9001 1232.93 62.6133 1232.32 62.9795L1233.34 64.6945C1234.77 63.8383 1235.36 62.3104 1235.36 60.4754H1233.36ZM1232.23 63.0359L1206.26 82.4417L1207.45 84.0439L1233.43 64.6382L1232.23 63.0359ZM1206.15 82.5357C1206.1 82.5792 1206.08 82.5945 1206.07 82.5978C1206.07 82.5999 1206.08 82.5947 1206.09 82.5927C1206.11 82.5907 1206.12 82.5941 1206.11 82.5909C1206.09 82.5871 1206.05 82.5747 1205.99 82.5381L1204.96 84.2531C1205.35 84.4859 1205.81 84.6363 1206.31 84.5805C1206.82 84.5242 1207.24 84.2732 1207.56 83.9499L1206.15 82.5357ZM1205.99 82.5381C1205.8 82.4196 1205.71 82.2928 1205.71 82.0204H1203.71C1203.71 82.9704 1204.14 83.7604 1204.96 84.2531L1205.99 82.5381ZM1205.71 82.0204V33.1239H1203.71V82.0204H1205.71ZM1205.71 33.1239C1205.71 32.3149 1205.47 31.5388 1204.83 30.9895C1204.22 30.4655 1203.41 30.2903 1202.58 30.2903V32.2903C1203.17 32.2903 1203.43 32.4208 1203.53 32.508C1203.6 32.5699 1203.71 32.7106 1203.71 33.1239H1205.71ZM1202.58 30.2903H1181.79V32.2903H1202.58V30.2903ZM1181.79 30.2903C1180.96 30.2903 1180.15 30.4655 1179.54 30.9895C1178.9 31.5388 1178.66 32.3149 1178.66 33.1239H1180.66C1180.66 32.7106 1180.77 32.5699 1180.84 32.508C1180.94 32.4208 1181.2 32.2903 1181.79 32.2903V30.2903ZM1178.66 33.1239V188.981H1180.66V33.1239H1178.66ZM1178.66 188.981C1178.66 189.817 1178.88 190.623 1179.51 191.204C1180.12 191.772 1180.94 191.968 1181.79 191.968V189.968C1181.22 189.968 1180.97 189.832 1180.87 189.738C1180.78 189.657 1180.66 189.47 1180.66 188.981H1178.66ZM1181.79 191.968H1202.58V189.968H1181.79V191.968ZM1202.58 191.968C1203.43 191.968 1204.25 191.772 1204.86 191.204C1205.49 190.623 1205.71 189.817 1205.71 188.981H1203.71C1203.71 189.47 1203.59 189.657 1203.5 189.738C1203.4 189.832 1203.15 189.968 1202.58 189.968V191.968ZM1205.71 188.981V134.89H1203.71V188.981H1205.71ZM1205.71 134.89C1205.71 134.022 1205.5 133.188 1204.89 132.578C1204.28 131.968 1203.44 131.75 1202.58 131.75V133.75C1203.13 133.75 1203.37 133.889 1203.47 133.992C1203.58 134.095 1203.71 134.331 1203.71 134.89H1205.71ZM1202.58 131.75H1190.96V133.75H1202.58V131.75ZM1190.96 131.75C1190.65 131.75 1190.43 131.715 1190.3 131.673C1190.17 131.632 1190.15 131.596 1190.16 131.608C1190.21 131.665 1190.07 131.597 1190.24 131.058L1188.33 130.47C1188.08 131.256 1188.02 132.18 1188.63 132.9C1189.21 133.578 1190.12 133.75 1190.96 133.75V131.75ZM1190.24 131.039L1197.58 105.368L1195.65 104.819L1188.32 130.489L1190.24 131.039ZM1197.56 105.41C1197.71 104.972 1197.92 104.712 1198.16 104.55C1198.42 104.382 1198.79 104.26 1199.37 104.26V102.26C1198.51 102.26 1197.72 102.443 1197.05 102.886C1196.38 103.335 1195.93 103.992 1195.67 104.777L1197.56 105.41ZM1199.37 104.26H1232.52V102.26H1199.37V104.26ZM1232.52 104.26C1232.98 104.26 1233.14 104.373 1233.19 104.425C1233.24 104.477 1233.36 104.636 1233.36 105.093H1235.36C1235.36 104.328 1235.17 103.57 1234.61 103.011C1234.05 102.452 1233.29 102.26 1232.52 102.26V104.26ZM1233.36 105.093V217.861H1235.36V105.093H1233.36ZM1233.36 217.861C1233.36 218.454 1233.23 218.713 1233.14 218.814C1233.08 218.887 1232.94 219 1232.52 219V221C1233.33 221 1234.11 220.757 1234.66 220.116C1235.18 219.505 1235.36 218.694 1235.36 217.861H1233.36ZM1232.52 219H1215.26V221H1232.52V219ZM1215.26 219C1214.82 219 1214.53 218.893 1214.33 218.742C1214.12 218.587 1213.92 218.32 1213.76 217.85L1211.86 218.483C1212.12 219.236 1212.52 219.885 1213.13 220.342C1213.74 220.801 1214.47 221 1215.26 221V219ZM1213.77 217.867L1210.41 207.17L1208.5 207.77L1211.86 218.466L1213.77 217.867ZM1210.4 207.154C1210.26 206.738 1210.04 206.33 1209.68 206.023C1209.31 205.702 1208.85 205.553 1208.38 205.553V207.553C1208.41 207.553 1208.41 207.557 1208.4 207.554C1208.39 207.55 1208.38 207.544 1208.38 207.542C1208.38 207.541 1208.44 207.591 1208.5 207.787L1210.4 207.154ZM1208.38 205.553C1207.44 205.553 1206.78 206.244 1206.33 206.916L1207.99 208.025C1208.16 207.776 1208.29 207.645 1208.37 207.583C1208.45 207.527 1208.44 207.553 1208.38 207.553V205.553ZM1206.3 206.959L1202.94 212.613L1204.66 213.635L1208.02 207.981L1206.3 206.959ZM1202.94 212.618C1201.28 215.445 1199.4 217.122 1197.36 217.833L1198.01 219.722C1200.65 218.804 1202.85 216.711 1204.66 213.63L1202.94 212.618ZM1197.34 217.838C1195.25 218.6 1192.57 219 1189.28 219V221C1192.72 221 1195.64 220.585 1198.03 219.717L1197.34 217.838ZM1189.28 219H1167.13V221H1189.28V219ZM1167.13 219C1162.19 219 1158.02 217.271 1154.54 213.792L1153.12 215.206C1156.98 219.061 1161.67 221 1167.13 221V219ZM1154.54 213.792C1151.06 210.313 1149.33 206.136 1149.33 201.205H1147.33C1147.33 206.665 1149.27 211.351 1153.12 215.206L1154.54 213.792ZM1149.33 201.205V19.6774H1147.33V201.205H1149.33ZM1149.33 19.6774C1149.33 14.7469 1151.06 10.5701 1154.54 7.09082L1153.12 5.67661C1149.27 9.53174 1147.33 14.2175 1147.33 19.6774H1149.33ZM1154.54 7.09082C1158.02 3.61149 1162.19 1.88286 1167.13 1.88286V-0.117136C1161.67 -0.117136 1156.98 1.82147 1153.12 5.67661L1154.54 7.09082ZM1167.13 1.88286H1215.72V-0.117136H1167.13V1.88286ZM1330.47 215.263L1331.12 216.021L1331.12 216.02L1330.47 215.263ZM1334.29 1.88286C1334.68 1.88286 1334.82 1.99384 1334.88 2.08056C1334.99 2.2099 1335.12 2.51772 1335.12 3.17488H1337.12C1337.12 2.30404 1336.95 1.46585 1336.45 0.831174C1335.9 0.153893 1335.12 -0.117136 1334.29 -0.117136V1.88286ZM1335.12 3.17488V203.039H1337.12V3.17488H1335.12ZM1335.12 203.039C1335.12 207.632 1333.37 211.433 1329.82 214.507L1331.12 216.02C1335.11 212.574 1337.12 208.225 1337.12 203.039H1335.12ZM1329.82 214.505C1326.32 217.516 1322.42 219 1318.09 219V221C1322.93 221 1327.29 219.326 1331.12 216.021L1329.82 214.505ZM1318.09 219H1266.75V221H1318.09V219ZM1266.75 219C1262.45 219 1258.78 217.434 1255.7 214.261L1254.27 215.654C1257.71 219.205 1261.89 221 1266.75 221V219ZM1255.7 214.261C1252.6 211.056 1251.1 207.579 1251.1 203.803H1249.1C1249.1 208.177 1250.86 212.136 1254.27 215.654L1255.7 214.261ZM1251.1 203.803V3.17488H1249.1V203.803H1251.1ZM1251.1 3.17488C1251.1 2.51772 1251.23 2.2099 1251.34 2.08056C1251.41 1.99384 1251.54 1.88286 1251.93 1.88286V-0.117136C1251.1 -0.117136 1250.32 0.153893 1249.77 0.831174C1249.27 1.46585 1249.1 2.30404 1249.1 3.17488H1251.1ZM1251.93 1.88286H1279.28V-0.117136H1251.93V1.88286ZM1279.28 1.88286C1279.82 1.88286 1280.05 2.02441 1280.16 2.13819C1280.27 2.26497 1280.42 2.54852 1280.42 3.17488H1282.42C1282.42 2.27323 1282.21 1.41078 1281.62 0.773551C1281.01 0.123327 1280.17 -0.117136 1279.28 -0.117136V1.88286ZM1280.42 3.17488V188.981H1282.42V3.17488H1280.42ZM1280.42 188.981C1280.42 189.779 1280.6 190.563 1281.14 191.149C1281.7 191.751 1282.47 191.968 1283.25 191.968V189.968C1282.82 189.968 1282.67 189.853 1282.61 189.793C1282.54 189.717 1282.42 189.508 1282.42 188.981H1280.42ZM1283.25 191.968H1302.97V189.968H1283.25V191.968ZM1302.97 191.968C1303.78 191.968 1304.58 191.763 1305.16 191.178C1305.75 190.593 1305.95 189.798 1305.95 188.981H1303.95C1303.95 189.489 1303.83 189.687 1303.75 189.764C1303.67 189.841 1303.47 189.968 1302.97 189.968V191.968ZM1305.95 188.981V3.17488H1303.95V188.981H1305.95ZM1305.95 3.17488C1305.95 2.54852 1306.1 2.26497 1306.22 2.13819C1306.32 2.02441 1306.55 1.88286 1307.09 1.88286V-0.117136C1306.21 -0.117136 1305.36 0.123327 1304.76 0.773551C1304.16 1.41078 1303.95 2.27323 1303.95 3.17488H1305.95ZM1307.09 1.88286H1334.29V-0.117136H1307.09V1.88286ZM1422.61 89.202L1421.65 88.9273L1421.65 88.9326L1422.61 89.202ZM1415.43 114.873L1416.38 115.189L1416.38 115.166L1416.39 115.142L1415.43 114.873ZM1426.43 1.88286C1426.82 1.88286 1426.95 1.99384 1427.02 2.08056C1427.13 2.2099 1427.26 2.51772 1427.26 3.17488H1429.26C1429.26 2.30404 1429.09 1.46585 1428.59 0.831174C1428.04 0.153893 1427.26 -0.117136 1426.43 -0.117136V1.88286ZM1427.26 3.17488V29.1511H1429.26V3.17488H1427.26ZM1427.26 29.1511C1427.26 29.7445 1427.13 30.003 1427.05 30.1047C1426.98 30.177 1426.84 30.2903 1426.43 30.2903V32.2903C1427.24 32.2903 1428.01 32.0471 1428.56 31.4063C1429.09 30.795 1429.26 29.9838 1429.26 29.1511H1427.26ZM1426.43 30.2903H1385.02V32.2903H1426.43V30.2903ZM1385.02 30.2903C1384.25 30.2903 1383.5 30.4823 1382.94 31.0416C1382.38 31.6009 1382.19 32.3586 1382.19 33.1239H1384.19C1384.19 32.6669 1384.3 32.5078 1384.35 32.4558C1384.4 32.4039 1384.56 32.2903 1385.02 32.2903V30.2903ZM1382.19 33.1239V84.7708H1384.19V33.1239H1382.19ZM1382.19 84.7708C1382.19 85.6417 1382.36 86.4798 1382.86 87.1145C1383.41 87.7918 1384.19 88.0628 1385.02 88.0628V86.0628C1384.63 86.0628 1384.5 85.9519 1384.43 85.8651C1384.32 85.7358 1384.19 85.428 1384.19 84.7708H1382.19ZM1385.02 88.0628H1421.08V86.0628H1385.02V88.0628ZM1421.08 88.0628C1421.68 88.0628 1421.75 88.2163 1421.72 88.1789C1421.7 88.1582 1421.82 88.3096 1421.65 88.9273L1423.57 89.4768C1423.8 88.6684 1423.87 87.7501 1423.35 87.0164C1422.81 86.2659 1421.91 86.0628 1421.08 86.0628V88.0628ZM1421.65 88.9326L1414.46 114.603L1416.39 115.142L1423.57 89.4715L1421.65 88.9326ZM1414.48 114.556C1414.32 115.026 1414.12 115.293 1413.91 115.448C1413.71 115.599 1413.42 115.706 1412.98 115.706V117.706C1413.77 117.706 1414.5 117.508 1415.11 117.048C1415.72 116.591 1416.13 115.942 1416.38 115.189L1414.48 114.556ZM1412.98 115.706H1385.02V117.706H1412.98V115.706ZM1385.02 115.706C1384.25 115.706 1383.5 115.898 1382.94 116.458C1382.38 117.017 1382.19 117.775 1382.19 118.54H1384.19C1384.19 118.083 1384.3 117.924 1384.35 117.872C1384.4 117.82 1384.56 117.706 1385.02 117.706V115.706ZM1382.19 118.54V188.981H1384.19V118.54H1382.19ZM1382.19 188.981C1382.19 189.779 1382.37 190.563 1382.91 191.149C1383.47 191.751 1384.23 191.968 1385.02 191.968V189.968C1384.58 189.968 1384.44 189.853 1384.38 189.793C1384.31 189.717 1384.19 189.508 1384.19 188.981H1382.19ZM1385.02 191.968H1426.43V189.968H1385.02V191.968ZM1426.43 191.968C1426.84 191.968 1426.98 192.081 1427.05 192.153C1427.13 192.255 1427.26 192.514 1427.26 193.107H1429.26C1429.26 192.274 1429.09 191.463 1428.56 190.852C1428.01 190.211 1427.24 189.968 1426.43 189.968V191.968ZM1427.26 193.107V217.861H1429.26V193.107H1427.26ZM1427.26 217.861C1427.26 218.454 1427.13 218.713 1427.05 218.814C1426.98 218.887 1426.84 219 1426.43 219V221C1427.24 221 1428.01 220.757 1428.56 220.116C1429.09 219.505 1429.26 218.694 1429.26 217.861H1427.26ZM1426.43 219H1353.7V221H1426.43V219ZM1353.7 219C1353.28 219 1353.14 218.887 1353.08 218.814C1352.99 218.713 1352.86 218.454 1352.86 217.861H1350.86C1350.86 218.694 1351.04 219.505 1351.56 220.116C1352.11 220.757 1352.89 221 1353.7 221V219ZM1352.86 217.861V3.17488H1350.86V217.861H1352.86ZM1352.86 3.17488C1352.86 2.51772 1353 2.2099 1353.1 2.08056C1353.17 1.99384 1353.31 1.88286 1353.7 1.88286V-0.117136C1352.86 -0.117136 1352.08 0.153893 1351.54 0.831174C1351.03 1.46585 1350.86 2.30404 1350.86 3.17488H1352.86ZM1353.7 1.88286H1426.43V-0.117136H1353.7V1.88286Z" fill="url(#paint0_linear_85_956)" mask="url(#path-1-inside-1_85_956)"/>
<defs>
<linearGradient id="paint0_linear_85_956" x1="-7" y1="289.67" x2="1401.85" y2="-147.962" gradientUnits="userSpaceOnUse">
<stop stop-color="#19FB9B"/>
<stop offset="1" stop-color="#2DB8EA"/>
</linearGradient>
</defs>
</svg>
